<svg width="39" height="39" viewBox="0 0 39 39" fill="none" xmlns="http://www.w3.org/2000/svg">
<path d="M11.375 11.375H9.75C8.88805 11.375 8.0614 11.7174 7.4519 12.3269C6.84241 12.9364 6.5 13.763 6.5 14.625V29.25C6.5 30.112 6.84241 30.9386 7.4519 31.5481C8.0614 32.1576 8.88805 32.5 9.75 32.5H24.375C25.237 32.5 26.0636 32.1576 26.6731 31.5481C27.2826 30.9386 27.625 30.112 27.625 29.25V27.625" stroke="#0D00FF" stroke-width="1.5" stroke-linecap="round" stroke-linejoin="round"/>
<path d="M26 8.12517L30.875 13.0002M33.1256 10.7008C33.7656 10.0608 34.1252 9.19277 34.1252 8.28767C34.1252 7.38258 33.7656 6.51455 33.1256 5.87455C32.4856 5.23455 31.6176 4.875 30.7125 4.875C29.8074 4.875 28.9394 5.23455 28.2994 5.87455L14.625 19.5002V24.3752H19.5L33.1256 10.7008Z" stroke="#0D00FF" stroke-width="1.5" stroke-linecap="round" stroke-linejoin="round"/>
</svg>
